# xmcd
#
# Track frame offsets:
#	150
#	8130
#	22290
#	36852
#	51605
#	67540
#	80825
#	96832
#	107852
#	124010
#	139277
#	150757
#
# Disc length: 2163 seconds
#
# Revision: 4
# Processed by: cddbd v1.5.2PL0 Copyright (c) Steve Scherf et al.
# Submitted via: audiograbber 1.83.01
#
DISCID=9d08710c
DTITLE=Giorgio Gaber - I grandi successi originali - CD2
DYEAR=2000
DGENRE=Pop
TTITLE0=La maglietta
TTITLE1=La mamma del Gino
TTITLE2=Amore mio
TTITLE3=Le nostre serate
TTITLE4=Le strade di notte
TTITLE5=Povera gente
TTITLE6=Porta romana
TTITLE7=Non arrossire
TTITLE8=Trani a gogo'
TTITLE9=Quei capelli spettinati
TTITLE10=La ninfetta
TTITLE11=Noi due stupidi
EXTD=
EXTT0=
EXTT1=
EXTT2=
EXTT3=
EXTT4=
EXTT5=
EXTT6=
EXTT7=
EXTT8=
EXTT9=
EXTT10=
EXTT11=
PLAYORDER=
